<?xml version="1.0" encoding="UTF-8"?>
<svg xmlns="http://www.w3.org/2000/svg" xmlns:xlink="http://www.w3.org/1999/xlink" width="2500px" height="692px" viewBox="0 0 2518 692" version="1.1">
<g id="surface1">
<path style=" stroke:none;fill-rule:nonzero;fill:rgb(0%,0%,0%);fill-opacity:1;" d="M 609.914062 0 L 609.914062 533.917969 L 678.460938 534.179688 L 678.460938 280.046875 L 844.066406 280.046875 L 844.066406 212.78125 L 678.460938 212.78125 L 678.460938 67.261719 L 894.035156 67.261719 L 894.035156 0 Z M 609.914062 0 "/>
<path style=" stroke:none;fill-rule:nonzero;fill:rgb(0%,0%,0%);fill-opacity:1;" d="M 1017.785156 108.355469 C 1042.636719 108.355469 1062.523438 88.203125 1062.523438 63.597656 C 1062.523438 38.996094 1042.375 18.84375 1017.785156 18.84375 C 992.929688 18.84375 973.046875 38.996094 973.046875 63.597656 C 973.046875 88.203125 993.191406 108.355469 1017.785156 108.355469 Z M 1017.785156 108.355469 "/>
<path style=" stroke:none;fill-rule:nonzero;fill:rgb(0%,0%,0%);fill-opacity:1;" d="M 982.988281 175.617188 L 982.988281 533.917969 L 1051.535156 533.917969 L 1051.535156 175.617188 Z M 982.988281 175.617188 "/>
<path style=" stroke:none;fill-rule:evenodd;fill:rgb(0%,0%,0%);fill-opacity:1;" d="M 1306.09375 165.148438 C 1214.785156 165.148438 1151.210938 242.355469 1151.210938 333.960938 C 1151.210938 425.5625 1214.785156 502.773438 1306.09375 502.773438 C 1347.953125 502.773438 1382.222656 486.546875 1407.339844 460.375 L 1407.339844 507.746094 C 1407.339844 567.15625 1360.769531 616.625 1299.8125 616.625 C 1277.835938 616.625 1256.121094 608.25 1238.855469 596.207031 L 1204.320312 655.882812 C 1231.792969 673.679688 1264.492188 683.886719 1299.550781 683.886719 C 1396.875 683.886719 1475.625 605.109375 1475.625 507.746094 L 1475.625 175.617188 L 1407.339844 175.617188 L 1407.339844 207.546875 C 1382.222656 181.375 1347.953125 165.148438 1306.09375 165.148438 Z M 1220.019531 333.960938 C 1220.019531 277.167969 1263.449219 232.410156 1313.679688 232.410156 C 1363.910156 232.410156 1407.339844 277.167969 1407.339844 333.960938 C 1407.339844 390.753906 1363.910156 435.511719 1313.679688 435.511719 C 1263.449219 435.511719 1220.019531 390.753906 1220.019531 333.960938 Z M 1220.019531 333.960938 "/>
<path style=" stroke:none;fill-rule:nonzero;fill:rgb(0%,0%,0%);fill-opacity:1;" d="M 1723.378906 232.410156 C 1682.828125 232.410156 1649.863281 266.960938 1649.863281 307.527344 L 1649.863281 533.917969 L 1581.320312 533.917969 L 1581.320312 175.617188 L 1649.863281 175.617188 L 1649.863281 208.332031 C 1670.007812 182.421875 1699.570312 165.148438 1738.292969 165.148438 C 1786.429688 165.148438 1823.320312 188.964844 1844.773438 225.605469 C 1868.582031 190.273438 1907.300781 165.148438 1954.128906 165.148438 C 2032.355469 165.148438 2081.015625 228.222656 2081.277344 306.21875 C 2081.277344 306.480469 2081.277344 306.742188 2081.277344 307.003906 C 2081.277344 307.003906 2081.277344 307.265625 2081.277344 307.265625 L 2081.277344 533.917969 L 2012.734375 533.917969 L 2012.734375 307.265625 C 2012.734375 266.699219 1979.769531 232.148438 1939.21875 232.148438 C 1898.667969 232.148438 1865.703125 266.699219 1865.703125 307.265625 L 1865.703125 533.917969 L 1797.15625 533.917969 L 1797.15625 307.265625 C 1796.894531 266.699219 1763.929688 232.410156 1723.378906 232.410156 Z M 1723.378906 232.410156 "/>
<path style=" stroke:none;fill-rule:evenodd;fill:rgb(0%,0%,0%);fill-opacity:1;" d="M 2447.027344 216.183594 C 2416.417969 184.515625 2374.558594 165.148438 2326.15625 165.148438 C 2224.125 165.148438 2151.394531 251.777344 2151.394531 354.898438 C 2151.394531 458.019531 2223.863281 544.648438 2326.15625 544.648438 C 2374.558594 544.648438 2416.417969 525.019531 2447.027344 493.613281 L 2447.027344 533.917969 L 2515.570312 533.917969 L 2515.570312 175.617188 L 2447.027344 175.617188 Z M 2220.199219 354.898438 C 2220.199219 286.589844 2272.523438 232.410156 2333.746094 232.410156 C 2394.703125 232.410156 2447.289062 286.328125 2447.289062 354.898438 C 2447.289062 423.207031 2394.964844 477.386719 2333.746094 477.386719 C 2272.523438 477.125 2220.199219 423.207031 2220.199219 354.898438 Z M 2220.199219 354.898438 "/>
<path style=" stroke:none;fill-rule:nonzero;fill:rgb(10.196079%,73.725492%,99.607843%);fill-opacity:1;" d="M 232.917969 346 C 232.917969 282.402344 284.457031 230.578125 348.292969 230.578125 C 411.867188 230.578125 463.667969 282.140625 463.667969 346 C 463.667969 409.597656 412.128906 461.421875 348.292969 461.421875 C 284.71875 461.421875 232.917969 409.597656 232.917969 346 Z M 232.917969 346 "/>
<path style=" stroke:none;fill-rule:nonzero;fill:rgb(3.921569%,81.176472%,51.372552%);fill-opacity:1;" d="M 2.429688 576.578125 C 2.429688 512.980469 53.96875 461.160156 117.804688 461.160156 L 233.179688 461.160156 L 233.179688 576.578125 C 233.179688 640.179688 181.640625 692 117.804688 692 C 53.96875 692 2.429688 640.441406 2.429688 576.578125 Z M 2.429688 576.578125 "/>
<path style=" stroke:none;fill-rule:nonzero;fill:rgb(100%,44.705883%,38.431373%);fill-opacity:1;" d="M 232.917969 0 L 232.917969 230.578125 L 348.292969 230.578125 C 411.867188 230.578125 463.667969 179.019531 463.667969 115.160156 C 463.667969 51.558594 412.128906 -0.261719 348.292969 -0.261719 L 232.917969 -0.261719 Z M 232.917969 0 "/>
<path style=" stroke:none;fill-rule:nonzero;fill:rgb(94.901961%,30.588236%,11.764706%);fill-opacity:1;" d="M 2.429688 115.421875 C 2.429688 179.019531 53.96875 230.839844 117.804688 230.839844 L 233.179688 230.839844 L 233.179688 0 L 117.804688 0 C 53.96875 0 2.429688 51.558594 2.429688 115.421875 Z M 2.429688 115.421875 "/>
<path style=" stroke:none;fill-rule:nonzero;fill:rgb(63.529414%,34.901962%,100%);fill-opacity:1;" d="M 2.429688 346 C 2.429688 409.597656 53.96875 461.421875 117.804688 461.421875 L 233.179688 461.421875 L 233.179688 230.578125 L 117.804688 230.578125 C 53.96875 230.578125 2.429688 282.402344 2.429688 346 Z M 2.429688 346 "/>
</g>
</svg>
