<?xml version="1.0" encoding="UTF-8"?>
<svg xmlns="http://www.w3.org/2000/svg" xmlns:xlink="http://www.w3.org/1999/xlink" width="2500px" height="738px" viewBox="0 0 2490 738" version="1.1">
<defs>
<linearGradient id="linear0" gradientUnits="userSpaceOnUse" x1="26.65" y1="20.6" x2="135.699997" y2="114.400002" gradientTransform="matrix(2.881944,0,0,2.911,-48.160492,-27.188124)">
<stop offset="0" style="stop-color:rgb(35.294118%,62.352941%,83.137255%);stop-opacity:1;"/>
<stop offset="1" style="stop-color:rgb(18.823529%,41.176471%,59.607843%);stop-opacity:1;"/>
</linearGradient>
<linearGradient id="linear1" gradientUnits="userSpaceOnUse" x1="151" y1="192.399994" x2="112" y2="137.300003" gradientTransform="matrix(2.881944,0,0,2.911,-48.160492,-27.188124)">
<stop offset="0" style="stop-color:rgb(100%,83.137255%,23.137255%);stop-opacity:1;"/>
<stop offset="1" style="stop-color:rgb(100%,90.980392%,45.098039%);stop-opacity:1;"/>
</linearGradient>
<filter id="alpha" filterUnits="objectBoundingBox" x="0%" y="0%" width="100%" height="100%">
  <feColorMatrix type="matrix" in="SourceGraphic" values="0 0 0 0 1 0 0 0 0 1 0 0 0 0 1 0 0 0 1 0"/>
</filter>
<mask id="mask0">
  <g filter="url(#alpha)">
<rect x="0" y="0" width="2490" height="738" style="fill:rgb(0%,0%,0%);fill-opacity:0.443137;stroke:none;"/>
  </g>
</mask>
<radialGradient id="radial0" gradientUnits="userSpaceOnUse" cx="61.52" cy="132.300003" fx="61.52" fy="132.300003" r="29.040001" gradientTransform="matrix(0.0000000896277,-1.229671,5.404743,0.00000194325,-400.048974,762.803704)">
<stop offset="0" style="stop-color:rgb(72.156863%,72.156863%,72.156863%);stop-opacity:0.498039;"/>
<stop offset="1" style="stop-color:rgb(49.803922%,49.803922%,49.803922%);stop-opacity:0;"/>
</radialGradient>
<clipPath id="clip1">
  <rect x="0" y="0" width="2490" height="738"/>
</clipPath>
<g id="surface5" clip-path="url(#clip1)">
<path style=" stroke:none;fill-rule:nonzero;fill:url(#radial0);" d="M 498.859375 687.296875 C 498.859375 707.019531 416.433594 723.003906 314.753906 723.003906 C 213.074219 723.003906 130.644531 707.019531 130.644531 687.296875 C 130.644531 667.578125 213.074219 651.589844 314.753906 651.589844 C 416.433594 651.589844 498.859375 667.578125 498.859375 687.296875 Z M 498.859375 687.296875 "/>
</g>
</defs>
<g id="surface1">
<path style=" stroke:none;fill-rule:nonzero;fill:rgb(39.215687%,39.215687%,39.215687%);fill-opacity:1;" d="M 945.789062 317.390625 C 945.789062 242.769531 924.515625 204.4375 881.953125 202.335938 C 865.023438 201.535156 848.492188 204.234375 832.414062 210.480469 C 819.578125 215.074219 810.941406 219.621094 806.394531 224.214844 L 806.394531 402.359375 C 833.613281 419.445312 857.785156 427.382812 878.84375 426.136719 C 923.4375 423.191406 945.753906 386.972656 945.753906 317.386719 Z M 998.253906 320.488281 C 998.253906 358.402344 989.363281 389.878906 971.488281 414.890625 C 951.5625 443.214844 923.949219 457.800781 888.644531 458.601562 C 862.027344 459.449219 834.589844 451.109375 806.410156 433.621094 L 806.410156 595.519531 L 760.765625 579.234375 L 760.765625 219.871094 C 768.257812 210.679688 777.894531 202.78125 789.582031 196.089844 C 816.746094 180.253906 849.78125 172.109375 888.617188 171.710938 L 889.265625 172.359375 C 924.773438 171.910156 952.132812 186.492188 971.34375 216.070312 C 989.269531 243.195312 998.261719 277.980469 998.261719 320.464844 Z M 998.253906 320.488281 "/>
<path style=" stroke:none;fill-rule:nonzero;fill:rgb(39.215687%,39.215687%,39.215687%);fill-opacity:1;" d="M 1277.277344 426.757812 C 1277.277344 477.613281 1272.183594 512.808594 1261.996094 532.4375 C 1251.757812 552.019531 1232.277344 567.65625 1203.535156 579.292969 C 1180.214844 588.484375 1154.996094 593.480469 1127.914062 594.332031 L 1120.371094 565.558594 C 1147.890625 561.8125 1167.265625 558.066406 1178.523438 554.320312 C 1200.644531 546.828125 1215.828125 535.335938 1224.167969 519.953125 C 1230.859375 507.410156 1234.152344 483.488281 1234.152344 448.046875 L 1234.152344 436.15625 C 1202.941406 450.34375 1170.214844 457.390625 1136.039062 457.390625 C 1113.566406 457.390625 1093.738281 450.347656 1076.660156 436.15625 C 1057.480469 420.722656 1047.894531 401.140625 1047.894531 377.425781 L 1047.894531 187.390625 L 1093.539062 171.753906 L 1093.539062 363.019531 C 1093.539062 383.453125 1100.132812 399.1875 1113.316406 410.226562 C 1126.5 421.265625 1143.582031 426.558594 1164.503906 426.160156 C 1185.429688 425.710938 1207.851562 417.617188 1231.675781 401.78125 L 1231.675781 178.636719 L 1277.320312 178.636719 L 1277.320312 426.738281 Z M 1277.277344 426.757812 "/>
<path style=" stroke:none;fill-rule:nonzero;fill:rgb(39.215687%,39.215687%,39.215687%);fill-opacity:1;" d="M 1455.574219 456.125 C 1450.132812 456.574219 1445.136719 456.773438 1440.542969 456.773438 C 1414.726562 456.773438 1394.601562 450.628906 1380.238281 438.292969 C 1365.910156 425.953125 1358.714844 408.921875 1358.714844 387.191406 L 1358.714844 207.355469 L 1327.453125 207.355469 L 1327.453125 178.628906 L 1358.714844 178.628906 L 1358.714844 102.371094 L 1404.308594 86.132812 L 1404.308594 178.640625 L 1455.59375 178.640625 L 1455.59375 207.367188 L 1404.308594 207.367188 L 1404.308594 385.972656 C 1404.308594 403.105469 1408.902344 415.246094 1418.089844 422.339844 C 1425.980469 428.183594 1438.519531 431.527344 1455.59375 432.378906 L 1455.59375 456.160156 Z M 1455.574219 456.125 "/>
<path style=" stroke:none;fill-rule:nonzero;fill:rgb(39.215687%,39.215687%,39.215687%);fill-opacity:1;" d="M 1731.726562 452.382812 L 1686.082031 452.382812 L 1686.082031 276.136719 C 1686.082031 258.203125 1681.886719 242.765625 1673.546875 229.875 C 1663.910156 215.289062 1650.527344 208 1633.347656 208 C 1612.421875 208 1586.253906 219.039062 1554.855469 241.117188 L 1554.855469 452.367188 L 1509.210938 452.367188 L 1509.210938 31.09375 L 1554.855469 16.707031 L 1554.855469 208.585938 C 1584.019531 187.355469 1615.875 176.714844 1650.511719 176.714844 C 1674.683594 176.714844 1694.253906 184.859375 1709.226562 201.09375 C 1724.257812 217.332031 1731.75 237.558594 1731.75 261.722656 L 1731.75 452.320312 Z M 1731.726562 452.382812 "/>
<path style=" stroke:none;fill-rule:nonzero;fill:rgb(39.215687%,39.215687%,39.215687%);fill-opacity:1;" d="M 1974.582031 310.214844 C 1974.582031 281.542969 1969.140625 257.890625 1958.296875 239.132812 C 1945.414062 216.304688 1925.390625 204.265625 1898.300781 203.015625 C 1848.261719 205.914062 1823.292969 241.78125 1823.292969 310.539062 C 1823.292969 342.058594 1828.488281 368.398438 1838.976562 389.515625 C 1852.359375 416.441406 1872.4375 429.726562 1899.230469 429.28125 C 1949.46875 428.878906 1974.59375 389.21875 1974.59375 310.226562 Z M 2024.570312 310.515625 C 2024.570312 351.328125 2014.132812 385.289062 1993.304688 412.402344 C 1970.382812 442.773438 1938.742188 458.007812 1898.316406 458.007812 C 1858.265625 458.007812 1827.050781 442.773438 1804.507812 412.402344 C 1784.078125 385.273438 1773.894531 351.3125 1773.894531 310.515625 C 1773.894531 272.148438 1784.929688 239.894531 1807.003906 213.601562 C 1830.324219 185.726562 1861.003906 171.742188 1898.867188 171.742188 C 1936.769531 171.742188 1967.621094 185.726562 1991.394531 213.601562 C 2013.46875 239.878906 2024.503906 272.128906 2024.503906 310.515625 Z M 2024.570312 310.515625 "/>
<path style=" stroke:none;fill-rule:nonzero;fill:rgb(39.215687%,39.215687%,39.215687%);fill-opacity:1;" d="M 2286.085938 452.382812 L 2240.441406 452.382812 L 2240.441406 266.140625 C 2240.441406 245.707031 2234.296875 229.773438 2222.011719 218.285156 C 2209.726562 206.84375 2193.347656 201.300781 2172.925781 201.75 C 2151.253906 202.152344 2130.625 209.242188 2111.035156 222.984375 L 2111.035156 452.378906 L 2065.386719 452.378906 L 2065.386719 217.347656 C 2091.65625 198.214844 2115.828125 185.726562 2137.886719 179.882812 C 2158.710938 174.441406 2177.085938 171.738281 2192.910156 171.738281 C 2203.746094 171.738281 2213.9375 172.789062 2223.523438 174.886719 C 2241.449219 179.03125 2256.03125 186.726562 2267.269531 198.015625 C 2279.804688 210.503906 2286.046875 225.492188 2286.046875 243.023438 L 2286.046875 452.378906 Z M 2286.085938 452.382812 "/>
<path style=" stroke:none;fill-rule:nonzero;fill:url(#linear0);" d="M 310.019531 32.789062 C 286.535156 32.898438 264.109375 34.902344 244.390625 38.398438 C 186.238281 48.671875 175.683594 70.171875 175.683594 109.839844 L 175.683594 162.214844 L 313.042969 162.214844 L 313.042969 179.671875 L 124.140625 179.671875 C 84.21875 179.671875 49.238281 203.679688 38.324219 249.320312 C 25.710938 301.648438 25.152344 334.34375 38.324219 388.976562 C 48.089844 429.660156 71.410156 458.625 111.332031 458.625 L 158.566406 458.625 L 158.566406 395.84375 C 158.566406 350.488281 197.796875 310.460938 244.382812 310.460938 L 381.589844 310.460938 C 419.785156 310.460938 450.296875 279.003906 450.296875 240.660156 L 450.296875 109.820312 C 450.296875 72.582031 418.890625 44.628906 381.589844 38.375 C 357.992188 34.445312 333.507812 32.660156 310.015625 32.769531 Z M 235.730469 74.914062 C 249.921875 74.914062 261.507812 86.695312 261.507812 101.179688 C 261.507812 115.609375 249.917969 127.285156 235.730469 127.285156 C 221.492188 127.285156 209.953125 115.613281 209.953125 101.179688 C 209.953125 86.695312 221.492188 74.914062 235.730469 74.914062 Z M 235.730469 74.914062 "/>
<path style=" stroke:none;fill-rule:nonzero;fill:url(#linear1);" d="M 467.414062 179.632812 L 467.414062 240.671875 C 467.414062 287.980469 427.316406 327.796875 381.59375 327.796875 L 244.390625 327.796875 C 206.804688 327.796875 175.683594 359.96875 175.683594 397.597656 L 175.683594 528.4375 C 175.683594 565.675781 208.058594 587.582031 244.390625 598.242188 C 287.871094 611.035156 329.59375 613.34375 381.59375 598.242188 C 416.179688 588.226562 450.300781 568.066406 450.300781 528.4375 L 450.300781 476.0625 L 313.09375 476.0625 L 313.09375 458.605469 L 519.007812 458.605469 C 558.929688 458.605469 573.828125 430.75 587.710938 388.957031 C 602.050781 345.910156 601.441406 304.496094 587.710938 249.300781 C 577.84375 209.546875 559 179.652344 519.007812 179.652344 L 467.464844 179.652344 Z M 390.253906 511.015625 C 404.492188 511.015625 416.03125 522.683594 416.03125 537.121094 C 416.03125 551.605469 404.492188 563.386719 390.253906 563.386719 C 376.0625 563.386719 364.476562 551.605469 364.476562 537.121094 C 364.476562 522.6875 376.066406 511.015625 390.253906 511.015625 Z M 390.253906 511.015625 "/>
<path style=" stroke:none;fill-rule:nonzero;fill:rgb(39.215687%,39.215687%,39.215687%);fill-opacity:1;" d="M 2375.234375 137.914062 L 2383.238281 137.914062 L 2383.238281 87.710938 L 2402.195312 87.710938 L 2402.195312 81.722656 L 2356.277344 81.722656 L 2356.277344 87.710938 L 2375.234375 87.710938 L 2375.234375 137.914062 M 2409.289062 137.914062 L 2416.125 137.914062 L 2416.125 92.058594 L 2430.960938 137.910156 L 2438.574219 137.910156 L 2454.039062 92.214844 L 2454.039062 137.914062 L 2461.5 137.914062 L 2461.5 81.742188 L 2451.628906 81.742188 L 2434.734375 129.882812 L 2420.320312 81.742188 L 2409.289062 81.742188 L 2409.289062 137.914062 "/>
<use xlink:href="#surface5" mask="url(#mask0)"/>
</g>
</svg>
